<?xml version="1.0" standalone="no"?><!DOCTYPE svg PUBLIC "-//W3C//DTD SVG 1.1//EN" "http://www.w3.org/Graphics/SVG/1.1/DTD/svg11.dtd"><svg class="icon" width="200px" height="200.00px" viewBox="0 0 1024 1024" version="1.1" xmlns="http://www.w3.org/2000/svg"><path d="M704 64v160a32 32 0 0 0 32 32h159.872L896 575.872H128v-476.8C128 78.528 143.168 64 164.416 64H704z" fill="#C6CAE5" /><path d="M704 64l192 192H736a32 32 0 0 1-32-32V64z" fill="#7987C2" /><path d="M256 320h512v31.744H256V320z m0 130.816h512v31.744H256v-31.744zM922.368 576c20.544 0 37.312 16.832 37.312 37.44v309.12A37.504 37.504 0 0 1 922.368 960H101.312A37.504 37.504 0 0 1 64 922.56V613.44C64 592.832 80.768 576 101.312 576h821.12z m-566.144 91.136c-32.832 0-57.92 10.688-75.2 32.576-15.232 19.008-22.72 44.032-22.72 74.56 0 31.104 7.168 55.872 21.888 74.304 16.64 21.312 42.304 32.256 76.608 32.256 22.144 0 41.152-6.336 56.96-19.008 17.024-13.504 27.712-32.256 32.32-56.448h-32.832c-4.032 15.552-10.944 27.392-20.736 35.136A58.752 58.752 0 0 1 356.48 851.2c-22.464 0-39.168-7.232-49.792-21.056-9.792-12.928-14.72-31.68-14.72-55.872 0-23.616 4.928-42.048 14.976-55.296 10.944-14.976 27.072-22.144 48.64-22.144 14.464 0 26.24 2.88 35.456 9.216 9.536 6.336 15.872 16.128 19.328 29.632H443.2a75.904 75.904 0 0 0-27.072-49.536c-15.552-12.672-35.712-19.008-59.904-19.008z m174.912 0c-22.208 0-40.32 4.928-54.72 14.976a48.768 48.768 0 0 0-23.04 42.88c0 18.176 7.744 32 23.616 41.536 6.016 3.456 21.888 9.216 47.232 17.28 22.72 6.912 35.968 11.52 40 13.504 12.672 6.336 19.328 14.976 19.328 25.92 0 8.64-4.608 15.296-13.248 20.48-8.64 4.864-20.736 7.488-35.712 7.488-17.024 0-29.44-3.2-37.44-8.96-8.96-6.592-14.4-17.856-16.704-33.408H447.04c1.408 26.24 10.88 45.248 28.16 57.344 14.144 9.792 34.048 14.656 59.392 14.656 26.176 0 46.656-5.44 61.056-15.808a51.648 51.648 0 0 0 21.568-43.776c0-19.008-8.96-33.728-26.752-44.352-8.064-4.608-25.92-11.52-53.888-20.16a289.408 289.408 0 0 1-35.136-12.672c-9.792-5.184-14.4-12.416-14.4-21.056 0-9.792 4.032-16.96 12.672-21.312 6.912-3.712 16.704-5.44 29.696-5.44 14.976 0 26.496 2.56 33.92 8.32 7.552 5.504 12.992 14.72 15.872 27.392h33.408c-1.984-22.464-10.368-39.168-24.768-49.856-13.504-10.048-32.512-14.976-56.704-14.976z m76.928 4.032L681.216 876.8h40.64l73.152-205.632H758.4l-56.448 167.616h-0.832l-56.448-167.616h-36.608z" fill="#374C9D" /></svg>