<?xml version="1.0" standalone="no"?><!DOCTYPE svg PUBLIC "-//W3C//DTD SVG 1.1//EN" "http://www.w3.org/Graphics/SVG/1.1/DTD/svg11.dtd"><svg class="icon" width="200px" height="200.00px" viewBox="0 0 1024 1024" version="1.1" xmlns="http://www.w3.org/2000/svg"><path d="M838.974 512.446716a46.545021 46.545021 0 0 1-46.54502 46.545021L525.027835 558.549559a45.195215 45.195215 0 0 1-13.032606 2.117798 46.405386 46.405386 0 0 1-43.519594-30.417171 47.615556 47.615556 0 0 1-3.723602-18.26892 68.630633 68.630633 0 0 1 0.698175-6.981753l0.465451-271.939285a46.545021 46.545021 0 0 1 93.090041 0L558.54025 465.459517l233.88873 0.349088a46.545021 46.545021 0 0 1 46.54502 46.638111zM511.995229 1023.999767a508.248355 508.248355 0 0 1-293.349994-93.299494 46.405386 46.405386 0 0 1-34.21059-44.68322l-0.418905-4.328687a46.545021 46.545021 0 0 1 80.592703-31.534252 420.534263 420.534263 0 1 0-132.653309-160.161416l-7.540293 7.540293a46.545021 46.545021 0 0 1 29.02082 43.077417l0.442178 4.328687a46.428658 46.428658 0 0 1-91.088606 12.776608A511.995229 511.995229 0 1 1 511.995229 1023.999767z" fill="#0090FF" /></svg>