<?xml version="1.0" standalone="no"?><!DOCTYPE svg PUBLIC "-//W3C//DTD SVG 1.1//EN" "http://www.w3.org/Graphics/SVG/1.1/DTD/svg11.dtd"><svg class="icon" width="200px" height="200.00px" viewBox="0 0 1024 1024" version="1.1" xmlns="http://www.w3.org/2000/svg"><path d="M1024 512A512 512 0 1 0 0 512a512 512 0 0 0 1024 0zM70.592 512a441.408 441.408 0 1 1 882.816 0A441.408 441.408 0 0 1 70.592 512zM512 317.824A52.992 52.992 0 1 0 512 211.84a52.992 52.992 0 0 0 0 105.984z m-35.328 476.672a35.328 35.328 0 1 0 70.656 0v-388.48a35.328 35.328 0 1 0-70.656 0v388.48z" fill="#4EA7EE" /></svg>
