<?xml version="1.0" standalone="no"?><!DOCTYPE svg PUBLIC "-//W3C//DTD SVG 1.1//EN" "http://www.w3.org/Graphics/SVG/1.1/DTD/svg11.dtd"><svg class="icon" width="200px" height="200.00px" viewBox="0 0 1024 1024" version="1.1" xmlns="http://www.w3.org/2000/svg"><path d="M512 1002.666667c270.997333 0 490.666667-219.669333 490.666667-490.666667S782.997333 21.333333 512 21.333333 21.333333 241.002667 21.333333 512s219.669333 490.666667 490.666667 490.666667z m0 21.333333C229.226667 1024 0 794.773333 0 512S229.226667 0 512 0s512 229.226667 512 512-229.226667 512-512 512z" fill="#FF2F2F" /><path d="M405.333333 362.666667l5.802667-25.984a21.333333 21.333333 0 0 1 20.821333-16.682667h160.085334a21.333333 21.333333 0 0 1 20.821333 16.682667L618.666667 362.666667h53.76a21.333333 21.333333 0 0 1 19.776 13.376L704 405.333333H320l11.797333-29.290666A21.333333 21.333333 0 0 1 351.573333 362.666667H405.333333z m-42.666666 64h298.666666l-25.749333 279.296a21.333333 21.333333 0 0 1-21.248 19.370666h-204.672a21.333333 21.333333 0 0 1-21.248-19.370666L362.666667 426.666667z m64.64 54.442666a10.666667 10.666667 0 0 0-9.493334 11.733334l17.834667 169.728a10.666667 10.666667 0 1 0 21.205333-2.24l-17.834666-169.728a10.666667 10.666667 0 0 0-11.733334-9.493334zM512 480a10.666667 10.666667 0 0 0-10.666667 10.666667v170.666666a10.666667 10.666667 0 1 0 21.333334 0v-170.666666a10.666667 10.666667 0 0 0-10.666667-10.666667z m84.693333 1.109333a10.666667 10.666667 0 0 0-11.733333 9.493334l-17.813333 169.728a10.666667 10.666667 0 0 0 21.205333 2.24l17.834667-169.728a10.666667 10.666667 0 0 0-9.493334-11.733334z" fill="#FF3B3B" /></svg>
